<svg width="31" height="25" viewBox="0 0 31 25" fill="none" xmlns="http://www.w3.org/2000/svg">
<path d="M0 3.62364H30.8571C30.8571 1.73257 29.3196 0.195068 27.4286 0.195068H3.42857C1.5375 0.195068 0 1.73257 0 3.62364ZM0 5.33793V20.7665C0 22.6576 1.5375 24.1951 3.42857 24.1951H27.4286C29.3196 24.1951 30.8571 22.6576 30.8571 20.7665V5.33793H0ZM3.42857 20.1933C3.42857 18.6129 4.70893 17.3379 6.28393 17.3379H12.5732C14.1536 17.3379 15.4286 18.6183 15.4286 20.1933C15.4286 20.5094 15.1714 20.7665 14.8554 20.7665H4.00179C3.68571 20.7665 3.42857 20.5094 3.42857 20.1933ZM9.42857 8.7665C10.3379 8.7665 11.21 9.12772 11.8529 9.7707C12.4959 10.4137 12.8571 11.2858 12.8571 12.1951C12.8571 13.1044 12.4959 13.9765 11.8529 14.6194C11.21 15.2624 10.3379 15.6236 9.42857 15.6236C8.51926 15.6236 7.64719 15.2624 7.0042 14.6194C6.36122 13.9765 6 13.1044 6 12.1951C6 11.2858 6.36122 10.4137 7.0042 9.7707C7.64719 9.12772 8.51926 8.7665 9.42857 8.7665ZM18.8571 9.62364C18.8571 9.15221 19.2429 8.7665 19.7143 8.7665H26.5714C27.0429 8.7665 27.4286 9.15221 27.4286 9.62364C27.4286 10.0951 27.0429 10.4808 26.5714 10.4808H19.7143C19.2429 10.4808 18.8571 10.0951 18.8571 9.62364ZM18.8571 13.0522C18.8571 12.5808 19.2429 12.1951 19.7143 12.1951H26.5714C27.0429 12.1951 27.4286 12.5808 27.4286 13.0522C27.4286 13.5236 27.0429 13.9094 26.5714 13.9094H19.7143C19.2429 13.9094 18.8571 13.5236 18.8571 13.0522ZM18.8571 16.4808C18.8571 16.0094 19.2429 15.6236 19.7143 15.6236H26.5714C27.0429 15.6236 27.4286 16.0094 27.4286 16.4808C27.4286 16.9522 27.0429 17.3379 26.5714 17.3379H19.7143C19.2429 17.3379 18.8571 16.9522 18.8571 16.4808Z" fill="white"/>
</svg>
