<svg width="31" height="29" viewBox="0 0 31 29" fill="none" xmlns="http://www.w3.org/2000/svg">
<path d="M14.7333 11.1587C16.1444 11.1587 17.4999 11.5532 18.6666 12.2643V28.9365H7.99994V19.2532L5.02217 24.2865C4.39994 25.3421 3.03328 25.6921 1.97772 25.0698C0.922167 24.4476 0.572167 23.081 1.19439 22.0254L5.42772 14.8698C6.78883 12.5698 9.26106 11.1587 11.9333 11.1587H14.7333ZM8.88883 4.93651C8.88883 3.75777 9.35709 2.62731 10.1906 1.79381C11.0241 0.960318 12.1545 0.492065 13.3333 0.492065C14.512 0.492065 15.6425 0.960318 16.476 1.79381C17.3095 2.62731 17.7777 3.75777 17.7777 4.93651C17.7777 6.11525 17.3095 7.24571 16.476 8.07921C15.6425 8.9127 14.512 9.38095 13.3333 9.38095C12.1545 9.38095 11.0241 8.9127 10.1906 8.07921C9.35709 7.24571 8.88883 6.11525 8.88883 4.93651ZM24.8888 0.492065C25.3777 0.492065 25.7777 0.892065 25.7777 1.38095V7.84207C26.3111 8.14762 26.6666 8.7254 26.6666 9.38095V15.4532L27.5555 15.1587V12.0476C27.5555 11.5587 27.9555 11.1587 28.4444 11.1587H29.3333C29.8222 11.1587 30.2222 11.5587 30.2222 12.0476V16.7421C30.2222 17.1254 29.9777 17.4643 29.6166 17.5865L26.6666 18.5643V20.0476H29.3333C29.8222 20.0476 30.2222 20.4476 30.2222 20.9365V21.8254C30.2222 22.3143 29.8222 22.7143 29.3333 22.7143H26.8888L28.1666 27.831C28.3055 28.3921 27.8833 28.9365 27.3055 28.9365H23.9999C23.5111 28.9365 23.1111 28.5365 23.1111 28.0476V22.7143H22.2222C21.2388 22.7143 20.4444 21.9198 20.4444 20.9365V12.9365C20.4444 11.9532 21.2388 11.1587 22.2222 11.1587V9.38095C22.2222 8.7254 22.5777 8.14762 23.1111 7.84207V2.26984C22.6222 2.26984 22.2222 1.86984 22.2222 1.38095C22.2222 0.892065 22.6222 0.492065 23.1111 0.492065H23.9999H24.8888Z" fill="#007FFF"/>
</svg>
