<svg width="24" height="25" viewBox="0 0 24 25" fill="none" xmlns="http://www.w3.org/2000/svg">
<path fill-rule="evenodd" clip-rule="evenodd" d="M3 0.214294C2.20435 0.214294 1.44129 0.530365 0.87868 1.09297C0.316071 1.65558 0 2.41864 0 3.21429L0 21.2143C0 22.0099 0.316071 22.773 0.87868 23.3356C1.44129 23.8982 2.20435 24.2143 3 24.2143H21C21.7956 24.2143 22.5587 23.8982 23.1213 23.3356C23.6839 22.773 24 22.0099 24 21.2143V3.21429C24 2.41864 23.6839 1.65558 23.1213 1.09297C22.5587 0.530365 21.7956 0.214294 21 0.214294L3 0.214294ZM8.244 9.26379C8.19565 9.26445 8.14767 9.25523 8.103 9.23671C8.05834 9.21819 8.01792 9.19075 7.98422 9.15606C7.95052 9.12138 7.92425 9.08019 7.90702 9.03501C7.88979 8.98983 7.88196 8.94161 7.884 8.89329C8.025 6.35079 10.1055 5.46429 12.0075 5.46429C14.1015 5.46429 16.0155 6.55929 16.0155 8.82429C16.0155 10.4443 15.063 11.2153 14.1495 11.9098C13.044 12.7483 12.6345 13.0618 12.6345 14.1388V14.2963C12.6345 14.3957 12.595 14.4911 12.5247 14.5615C12.4543 14.6318 12.359 14.6713 12.2595 14.6713H11.0445C10.9461 14.6713 10.8516 14.6326 10.7814 14.5636C10.7113 14.4946 10.6711 14.4007 10.6695 14.3023L10.6635 13.9768C10.6065 12.5863 11.406 11.7298 12.4155 10.9963C13.3005 10.3303 13.863 9.89229 13.863 8.93979C13.863 7.70229 12.921 7.18779 11.892 7.18779C10.6875 7.18779 10.0125 7.90479 9.879 8.88879C9.852 9.09429 9.687 9.26379 9.48 9.26379H8.2425H8.244ZM11.7315 18.9283C10.8555 18.9283 10.218 18.3373 10.218 17.5378C10.218 16.7098 10.8555 16.1278 11.733 16.1278C12.6465 16.1278 13.275 16.7098 13.275 17.5378C13.275 18.3373 12.645 18.9283 11.7315 18.9283V18.9283Z" fill="#007FFF"/>
</svg>
